<svg xmlns="http://www.w3.org/2000/svg" width="48" height="48" viewBox="0 0 48 48" fill="none">
  <rect width="48" height="48" rx="10" fill="#F9FAFB"/>
  <path d="M24 10C16.268 10 10 16.268 10 24C10 31.732 16.268 38 24 38C31.732 38 38 31.732 38 24C38 16.268 31.732 10 24 10ZM24 14C26.946 14 29.589 15.297 31.456 17.343L28 20.8C26.9 19.7 25.5 19 24 19C21.239 19 19 21.239 19 24C19 25.5 19.7 26.9 20.8 28L17.343 31.456C15.297 29.589 14 26.946 14 24C14 18.477 18.477 14 24 14ZM24 34C21.054 34 18.411 32.703 16.544 30.657L20 27.2C21.1 28.3 22.5 29 24 29C26.761 29 29 26.761 29 24C29 22.5 28.3 21.1 27.2 20L30.657 16.544C32.703 18.411 34 21.054 34 24C34 29.523 29.523 34 24 34Z" fill="#3B82F6"/>
  <path d="M19 24C19 21.239 21.239 19 24 19C25.5 19 26.9 19.7 28 20.8L30.657 18.143C28.89 16.197 26.576 15 24 15C19.582 15 16 18.582 16 23C16 25.576 17.197 27.89 19.143 29.657L21.8 27C20.7 25.9 20 24.5 20 23V24Z" fill="#10B981"/>
  <circle cx="35" cy="13" r="5" fill="#F43F5E"/>
</svg>
